<svg height="24" width="24" xmlns="http://www.w3.org/2000/svg" viewBox="0 0 512 512" xml:space="preserve">
  <g stroke-width="0"/>
  <g stroke-linecap="round" stroke-linejoin="round"/>
  <path style="fill:#9ac676" d="M311.087 65.173 339.215 0l32.002 45.076 53.405-23.504 3.446 62.376-44.19 44.189z"/>
  <path style="fill:#85b932" d="M446.85 200.929 512 172.801l-45.069-31.994 23.513-53.413-62.376-3.446-44.19 44.189z"/>
  <path style="fill:#f19259" d="M385.086 126.93 20.649 491.366c-13.995-13.983-25.686-24.979-18.431-73.41 4.214-28.204 32.934-102.516 76.31-177.63 3.859-6.77 7.832-13.509 11.97-20.173 19.073-31.177 40.598-61.826 63.744-88.578 5.907-6.908 11.974-13.586 18.163-19.86 1.254-1.39 2.522-2.66 3.844-3.981 94.683-94.691 142.342-47.299 159.734-29.908l49.103 49.104z"/>
  <path style="fill:#f08234" d="M404.281 335.767c-12.662 12.646-26.63 24.85-41.469 36.617a581.338 581.338 0 0 1-21.656 16.375c-53.864 38.987-115.376 71.378-164.891 92.835-9.445 4.157-18.447 7.809-26.867 11.156-24.204 9.353-43.724 15.305-55.35 17.032-48.384 7.221-59.609-4.623-73.398-18.415L385.086 126.93l50.853 50.853c18.53 18.714 59.991 66.334-31.658 157.984z"/>
  <g style="opacity:.47">
    <path style="fill:#e9ac34" d="M204.69 163.058c-5.227 5.227-13.196 5.769-17.766 1.215l-32.682-32.697c5.907-6.908 11.974-13.586 18.163-19.86l33.545 33.545c4.555 4.554 4.004 12.533-1.26 17.797zm158.121 209.326a581.338 581.338 0 0 1-21.656 16.375l-38.634-38.627c-4.608-4.592-4.057-12.57 1.169-17.804 2.636-2.636 5.93-4.081 9.147-4.31 3.278-.206 6.403.803 8.703 3.103l41.271 41.263zm-230.064-93.912c-4.435 4.432-11.179 4.898-15.053 1.024l-39.166-39.17c3.859-6.77 7.832-13.509 11.97-20.173l43.269 43.273c3.87 3.867 3.416 10.606-1.02 15.046zm29.733 174.665c-4.853 4.86-12.211 5.349-16.445 1.116l-53.657-53.658c-4.233-4.225-3.729-11.592 1.123-16.444 4.845-4.845 12.218-5.349 16.444-1.116l53.657 53.649c4.226 4.235 3.73 11.608-1.122 16.453zm100.352-151.458c-4.852 4.86-12.218 5.357-16.451 1.116l-56.201-56.202c-4.233-4.225-3.744-11.592 1.116-16.444 4.852-4.852 12.21-5.356 16.444-1.123l56.209 56.209c4.232 4.233 3.736 11.599-1.117 16.444zm134.19-47.315c-4.837 4.844-12.203 5.349-16.444 1.108l-33.224-33.217c-4.233-4.233-3.721-11.591 1.124-16.444 4.86-4.86 12.226-5.365 16.452-1.131l33.216 33.231c4.232 4.227 3.736 11.593-1.124 16.453z"/>
  </g>
</svg>
